<svg height="700pt" preserveAspectRatio="xMidYMid meet" viewBox="0 0 700 700" width="700pt" xmlns="http://www.w3.org/2000/svg"><path d="m1599 6996c-2-2-29-7-59-10-165-17-351-69-498-137-35-16-65-29-67-29s-48-25-102-56c-132-77-239-159-354-274-116-116-144-149-224-270-155-233-251-492-283-765-10-84-9-3857 1-3930 8-57 15-93 39-195 40-171 136-390 243-550 80-120 107-153 225-270 79-79 249-220 265-220 2 0 23-13 47-29 111-74 315-161 478-204 205-54 130-52 2185-52 1051 0 1939 4 1975 8 574 73 1088 438 1344 954 40 79 91 202 101 243 3 8 14 49 25 90 22 79 36 149 48 240 10 74 9 3826-1 3915-31 280-145 575-315 815-64 89-230 268-317 339-53 43-216 151-285 188-140 75-360 151-499 174-36 6-79 13-96 17-32 7-3869 15-3876 8z" transform="matrix(.1 0 0 -.1 0 700)"/></svg>