<svg height="320" overflow="hidden" preserveAspectRatio="xMidYMid meet" viewBox="0 0 320 320" width="320" xmlns="http://www.w3.org/2000/svg" xmlns:xlink="http://www.w3.org/1999/xlink"><linearGradient id="a" x1="0" x2="0" y1="0" y2="1"><stop offset="0" stop-color="#0f0f12"/><stop offset="1" stop-color="#18453f"/></linearGradient><svg height="320" preserveAspectRatio="xMidYMid meet" version="1.1" viewBox="0 0 160 160" width="320" xmlns="http://www.w3.org/2000/svg" xmlns:xlink="http://www.w3.org/1999/xlink"><path d="m120.038 0h-80.076c-22.07 0-39.962 17.888-39.962 39.962v80.076c0 22.07 17.888 39.962 39.962 39.962h80.076c22.07 0 39.962-17.888 39.962-39.962v-80.076c0-22.07-17.888-39.962-39.962-39.962z" fill="url(#a)"/></svg><svg height="320" preserveAspectRatio="xMidYMid meet" version="1.1" viewBox="0 0 160 160" width="320" xmlns="http://www.w3.org/2000/svg" xmlns:xlink="http://www.w3.org/1999/xlink"/><path d="m-28.39-34.32q0 5.5-4.84 20.02-3.3 9.46-5.61 12.32-2.31 2.86-8.47 2.86-1.32 0-9.13-.44-7.81-.44-15.07-.44h-55.66q-4.62 0-8.14-1.76-3.52-1.76-3.52-5.5 0-5.5 5.94-5.5 4.4 0 4.4-8.14v-113.52q0-8.36-4.18-8.36-5.94 0-5.94-5.5 0-3.74 3.52-5.61 3.52-1.87 7.92-1.87h26.4q4.18 0 7.81 1.98 3.63 1.98 3.63 5.5 0 5.5-5.94 5.5-3.96 0-3.96 8.36v115.06q0 2.86 2.2 3.74 2.2.88 7.04.88 21.56 0 25.96-1.1 7.26-1.98 12.1-5.94 4.84-3.96 11.66-13.86 3.74-5.5 7.04-5.5 1.32 0 2.31.33.99.33 1.54.77.55.44.77 1.43.22.99.22 1.32 0 .33 0 1.65zm177.32 0q0 5.5-4.84 20.02-3.3 9.46-5.61 12.32-2.31 2.86-8.47 2.86-1.32 0-9.13-.44-7.81-.44-15.07-.44h-55.44q-4.4 0-7.92-1.87-3.52-1.87-3.52-5.39 0-5.5 5.94-5.5 1.54 0 2.86-2.31 1.32-2.31 1.32-5.83v-113.52q0-8.36-4.18-8.36-5.94 0-5.94-5.5 0-3.74 3.52-5.61 3.52-1.87 7.92-1.87h66.88q3.08 0 8.03-.22 4.95-.22 6.93-.22 10.34 0 10.34 8.8 0 11-.88 17.16-1.98 16.06-8.58 16.06-2.64 0-4.18-3.19-1.54-3.19-3.19-8.58-1.65-5.39-3.63-8.47-.88-1.32-1.76-2.2-.88-.88-2.2-1.65-1.32-.77-2.42-1.21-1.1-.44-2.97-.77-1.87-.33-2.97-.44-1.1-.11-3.52-.22-2.42-.11-3.52-.11-1.1 0-3.96 0-2.86 0-3.96 0h-11.22q-3.52 0-4.4 1.65-.88 1.65-.88 4.95v47.3l32.56-1.98q1.54 0 4.84-.33 3.3-.33 3.96-.33 3.52 0 4.95 1.54 1.43 1.54 1.43 5.94 0 4.62-2.86 7.7-2.86 3.08-6.82 3.08-1.1 0-21.56-1.76l-16.5-.88v54.34q0 3.08 2.09 4.07 2.09.99 6.93.99 21.56 0 25.96-1.1 7.26-1.98 12.1-5.94 4.84-3.96 11.66-13.86 3.74-5.5 7.04-5.5 1.32 0 2.31.33.99.33 1.54.77.55.44.77 1.43.22.99.22 1.32 0 .33 0 1.65z" fill="#06bcee" transform="translate(160 237.0215)"/></svg>